<?xml version="1.0" standalone="no"?>
<!DOCTYPE svg PUBLIC "-//W3C//DTD SVG 20010904//EN"
 "http://www.w3.org/TR/2001/REC-SVG-20010904/DTD/svg10.dtd">
<svg version="1.0" xmlns="http://www.w3.org/2000/svg"
 width="599.000000pt" height="599.000000pt" viewBox="0 0 599.000000 599.000000"
 preserveAspectRatio="xMidYMid meet">
<metadata>
Created by potrace 1.14, written by Peter Selinger 2001-2017
</metadata>
<g transform="translate(0.000000,599.000000) scale(0.100000,-0.100000)"
fill="#000000" stroke="none">
<path d="M4488 3075 c-2 -1 -28 -5 -58 -9 -129 -14 -259 -49 -320 -87 -8 -5
-25 -13 -37 -19 -62 -27 -159 -99 -218 -162 -74 -79 -134 -193 -156 -293 -17
-82 -18 -236 -1 -315 7 -36 15 -70 16 -76 1 -7 17 -42 36 -79 37 -73 127 -173
203 -224 39 -26 146 -82 167 -87 3 0 12 -4 20 -7 26 -11 135 -51 145 -53 6 -2
62 -19 125 -39 63 -20 125 -38 136 -41 54 -10 235 -74 289 -102 71 -35 144
-103 170 -158 27 -56 29 -162 4 -221 -54 -127 -167 -193 -336 -198 -226 -6
-367 76 -417 243 -8 29 -13 52 -10 52 3 0 0 8 -5 18 -9 18 -28 19 -281 20
-190 0 -272 -3 -277 -11 -6 -11 -5 -70 2 -106 33 -161 90 -266 205 -379 84
-83 263 -181 376 -207 10 -2 44 -11 75 -19 98 -27 391 -40 494 -22 17 3 48 8
70 11 22 4 67 15 100 25 420 127 646 502 547 902 -33 130 -156 288 -278 357
-16 9 -31 18 -34 21 -21 24 -293 123 -520 190 -202 60 -313 106 -380 159 -85
68 -110 120 -106 219 7 170 128 272 328 277 130 3 220 -26 305 -99 42 -37 93
-127 93 -165 0 -11 8 -24 18 -29 9 -5 140 -9 291 -9 l273 0 -5 56 c-6 69 -18
124 -37 166 -5 11 -18 41 -29 66 -49 113 -186 250 -311 313 -83 42 -194 83
-244 91 -21 3 -41 7 -45 9 -21 13 -371 32 -383 21z"/>
<path d="M1371 2840 c-1 -110 2 -201 6 -202 5 0 160 -2 346 -3 185 -1 340 -5
344 -9 4 -4 7 -481 7 -1061 l0 -1055 20 -1 c25 -1 464 -1 488 0 15 1 16 81 16
1057 0 580 3 1058 6 1061 3 4 160 7 349 7 l342 1 1 203 0 202 -962 0 -962 0
-1 -200z"/>
</g>
</svg>
