<?xml version="1.0" encoding="utf-8"?>
<!-- Generator: Adobe Illustrator 25.3.0, SVG Export Plug-In . SVG Version: 6.00 Build 0)  -->
<svg version="1.1" id="Capa_1" xmlns="http://www.w3.org/2000/svg" xmlns:xlink="http://www.w3.org/1999/xlink" x="0px" y="0px"
	 viewBox="0 0 500.2 526.7" style="enable-background:new 0 0 500.2 526.7;" xml:space="preserve">
<style type="text/css">
	.st0{fill:url(#Path_1_2_);stroke:#1A132F;stroke-width:8;stroke-miterlimit:10;}
	.st1{fill:url(#Path_2_2_);}
	.st2{fill:url(#Path_3_2_);stroke:#1A132F;stroke-width:8;stroke-miterlimit:10;}
	.st3{fill:url(#Path_4_2_);}
	.st4{fill:url(#Rectangle_1_2_);stroke:#1A132F;stroke-width:8;stroke-miterlimit:10;}
	.st5{fill:url(#Rectangle_2_2_);stroke:#1A132F;stroke-width:8;stroke-miterlimit:10;}
	.st6{opacity:0.33;fill:#CF1B48;enable-background:new    ;}
	.st7{fill:url(#Rectangle_3_2_);stroke:#1A132F;stroke-width:8;stroke-miterlimit:10;}
	.st8{fill:url(#Rectangle_7_2_);stroke:#1A132F;stroke-width:8;stroke-miterlimit:10;}
	.st9{fill:#FEBC2A;stroke:#1A132F;stroke-width:7;stroke-miterlimit:10;}
	.st10{fill:none;}
	.st11{fill:none;stroke:#1A132F;stroke-width:6;stroke-linecap:round;stroke-miterlimit:10;}
	.st12{fill:#F479AD;}
	.st13{fill:#FC99BB;}
	.st14{fill:#1A132F;}
	.st15{fill:url(#Path_10_2_);stroke:#1A132F;stroke-width:8;}
	.st16{fill:url(#Path_11_2_);stroke:#1A132F;stroke-width:8;}
</style>
<g id="Group_16_1_" transform="translate(-1395.65 -1491.533)">
	<g id="Group_1_1_" transform="translate(1789.504 1629.971)">
		
			<linearGradient id="Path_1_2_" gradientUnits="userSpaceOnUse" x1="-712.1781" y1="1342.8225" x2="-711.343" y2="1343.24" gradientTransform="matrix(162.9889 0 0 -129.467 115937 173859.0781)">
			<stop  offset="0" style="stop-color:#FEB228"/>
			<stop  offset="1" style="stop-color:#FCF6E4"/>
		</linearGradient>
		<path id="Path_1_1_" class="st0" d="M-146.5,23.6c0,0,38.9-95.2,114.4-101.6c0,0,19.8,4.2,33.7,45.1c1.6,4.8,0.7,10.1-2.6,14
			c-9.8,12-36.6,37.3-99.1,57C-184.9,64.8-146.5,23.6-146.5,23.6z"/>
		
			<linearGradient id="Path_2_2_" gradientUnits="userSpaceOnUse" x1="-712.2765" y1="1342.1323" x2="-711.5033" y2="1343.0118" gradientTransform="matrix(123.5658 0 0 -60.6034 87912.1641 81366.7656)">
			<stop  offset="0" style="stop-color:#F0B125"/>
			<stop  offset="1" style="stop-color:#FF8F05"/>
		</linearGradient>
		<path id="Path_2_1_" class="st1" d="M-123.9,32.3c0,0,104.5-67.9,119-57.5C0.4-23.4-46.1,28.3-123.9,32.3z"/>
	</g>
	<g id="Group_2_1_" transform="translate(1626.101 1629.971)">
		
			<linearGradient id="Path_3_2_" gradientUnits="userSpaceOnUse" x1="-548.7078" y1="1343.382" x2="-548.3125" y2="1342.8726" gradientTransform="matrix(162.9901 0 0 -129.467 89304.7734 173859.0781)">
			<stop  offset="0" style="stop-color:#FCF6E4"/>
			<stop  offset="1" style="stop-color:#FEB228"/>
		</linearGradient>
		<path id="Path_3_1_" class="st2" d="M-0.8,23.6c0,0-38.9-95.2-114.4-101.6c0,0-19.8,4.2-33.7,45.1c-1.6,4.8-0.7,10.1,2.6,14
			c9.8,12,36.6,37.3,99.1,57C37.5,64.8-0.8,23.6-0.8,23.6z"/>
		
			<linearGradient id="Path_4_2_" gradientUnits="userSpaceOnUse" x1="-548.1315" y1="1342.0089" x2="-549.014" y2="1343.0392" gradientTransform="matrix(123.5658 0 0 -60.6034 67695.7969 81366.7656)">
			<stop  offset="0" style="stop-color:#F0B125"/>
			<stop  offset="1" style="stop-color:#FF8F05"/>
		</linearGradient>
		<path id="Path_4_1_" class="st3" d="M-23.4,32.3c0,0-104.5-67.9-119-57.5C-147.7-23.4-101.3,28.3-23.4,32.3z"/>
	</g>
	
		<linearGradient id="Rectangle_1_2_" gradientUnits="userSpaceOnUse" x1="1077.6212" y1="2972.9119" x2="1078.5878" y2="2972.6865" gradientTransform="matrix(449.82 0 0 -85.024 -483318.5 254459.6406)">
		<stop  offset="0" style="stop-color:#E43474"/>
		<stop  offset="1" style="stop-color:#FA4AA8"/>
	</linearGradient>
	<rect id="Rectangle_1_1_" x="1415.5" y="1659.2" class="st4" width="434.8" height="82.2"/>
	
		<linearGradient id="Rectangle_2_2_" gradientUnits="userSpaceOnUse" x1="1078.0682" y1="2973.7026" x2="1078.0682" y2="2972.7361" gradientTransform="matrix(388.722 0 0 -280.095 -417436.75 834660.625)">
		<stop  offset="0" style="stop-color:#E53575"/>
		<stop  offset="1" style="stop-color:#FA4AA8"/>
	</linearGradient>
	<path id="Rectangle_2_1_" class="st5" d="M1444.2,1741.4h375.7l0,0v263.2c0,4.1-3.4,7.5-7.5,7.5h-360.7c-4.1,0-7.5-3.4-7.5-7.5
		V1741.4L1444.2,1741.4z"/>
	<rect id="Rectangle_5_1_" x="1447.1" y="1744.3" class="st6" width="369.9" height="26.5"/>
	
		<linearGradient id="Rectangle_3_2_" gradientUnits="userSpaceOnUse" x1="1077.1357" y1="2973.7026" x2="1077.1357" y2="2972.7361" gradientTransform="matrix(79.876 0 0 -280.119 -84405.2109 834731.9375)">
		<stop  offset="0" style="stop-color:#FEBE0E"/>
		<stop  offset="1" style="stop-color:#F4C684"/>
	</linearGradient>
	<rect id="Rectangle_3_1_" x="1593.5" y="1741.4" class="st7" width="77.2" height="270.7"/>
	
		<linearGradient id="Rectangle_7_2_" gradientUnits="userSpaceOnUse" x1="1077.3892" y1="2973.2839" x2="1077.3892" y2="2972.3174" gradientTransform="matrix(101.876 0 0 -85.119 -108128.0156 254742.1719)">
		<stop  offset="0" style="stop-color:#FEBE0E"/>
		<stop  offset="1" style="stop-color:#FAB808"/>
	</linearGradient>
	<rect id="Rectangle_7_1_" x="1582.8" y="1659.2" class="st8" width="98.5" height="82.3"/>
	<path id="Rectangle_4_1_" class="st9" d="M1629.9,1631.4h4c12.8,0,23.2,10.4,23.2,23.2v4.8l0,0h-50.4l0,0v-4.8
		C1606.7,1641.8,1617.1,1631.4,1629.9,1631.4z"/>
	<g id="Group_4_1_" transform="translate(1543.333 2112.356)">
		<line id="Line_1_1_" class="st10" x1="-104.4" y1="-94.1" x2="288.9" y2="-94.1"/>
		<line id="Line_2_1_" class="st10" x1="314.1" y1="-94.1" x2="339.2" y2="-94.1"/>
	</g>
	<g id="Group_5_1_" transform="translate(2022.612 1567.433)">
		<line id="Line_4_1_" class="st10" x1="-144.9" y1="-75.9" x2="-144.9" y2="-37.1"/>
		<line id="Line_5_1_" class="st10" x1="-163" y1="-56.5" x2="-126.8" y2="-56.5"/>
	</g>
	<circle id="Ellipse_3_1_" class="st11" cx="1807.8" cy="1538.1" r="13.9"/>
	<circle id="Ellipse_6_1_" class="st11" cx="1579.8" cy="1522" r="13.9"/>
	<circle id="Ellipse_7_1_" class="st12" cx="1778.8" cy="1828.4" r="12.6"/>
	<circle id="Ellipse_10_1_" class="st13" cx="1817.5" cy="1676.7" r="12.6"/>
	<circle id="Ellipse_11_1_" class="st13" cx="1832.9" cy="1690.2" r="7.7"/>
	<circle id="Ellipse_8_1_" class="st12" cx="1798.2" cy="1847.8" r="9.7"/>
	<circle id="Ellipse_9_1_" class="st12" cx="1778.8" cy="1850.7" r="4.8"/>
	<path id="Path_5_1_" class="st14" d="M1855.3,1631.6c-1.5-0.6-3.1-1-4.7-1.2c-1.1-0.2-2.2-0.2-3.3-0.3c0-1.1-0.1-2.2-0.3-3.3
		c-0.2-1.6-0.6-3.2-1.2-4.7c-0.6,1.5-1,3.1-1.2,4.7c-0.2,1.1-0.2,2.2-0.3,3.3c-1.1,0-2.2,0.1-3.3,0.3c-1.6,0.2-3.2,0.6-4.7,1.2
		c1.5,0.6,3.1,1,4.7,1.2c1.1,0.2,2.2,0.2,3.3,0.3c0,1.1,0.1,2.2,0.3,3.3c0.2,1.6,0.6,3.2,1.2,4.7c0.6-1.5,1-3.1,1.2-4.7
		c0.2-1.1,0.2-2.2,0.3-3.3c1.1,0,2.2-0.1,3.3-0.3C1852.2,1632.6,1853.8,1632.2,1855.3,1631.6z"/>
	<path id="Path_6_1_" class="st14" d="M1420.3,1583.4c-2-0.8-4.1-1.3-6.2-1.6c-1.4-0.2-2.8-0.3-4.3-0.4c-0.1-1.4-0.2-2.8-0.4-4.3
		c-0.3-2.1-0.8-4.2-1.6-6.2c-0.8,2-1.3,4.1-1.6,6.2c-0.2,1.4-0.3,2.8-0.4,4.3c-1.4,0-2.8,0.2-4.3,0.4c-2.1,0.3-4.2,0.8-6.2,1.6
		c2,0.8,4.1,1.3,6.2,1.6c1.4,0.2,2.8,0.3,4.3,0.4c0.1,1.4,0.2,2.8,0.4,4.3c0.3,2.1,0.8,4.2,1.6,6.2c0.8-2,1.3-4.1,1.6-6.2
		c0.2-1.4,0.3-2.8,0.4-4.3c1.4-0.1,2.8-0.2,4.2-0.4C1416.3,1584.7,1418.3,1584.2,1420.3,1583.4z"/>
	<path id="Path_7_1_" class="st14" d="M1688.8,1564.7c-3.1-1.2-6.4-2-9.7-2.5c-2.2-0.3-4.5-0.5-6.7-0.6c-0.1-2.2-0.3-4.5-0.6-6.7
		c-0.4-3.3-1.3-6.6-2.5-9.7c-1.2,3.1-2,6.4-2.5,9.7c-0.3,2.2-0.5,4.5-0.6,6.7c-2.2,0.1-4.5,0.3-6.7,0.6c-3.3,0.4-6.6,1.3-9.7,2.5
		c3.1,1.2,6.4,2,9.7,2.5c2.2,0.3,4.5,0.5,6.7,0.6c0.1,2.2,0.3,4.5,0.6,6.7c0.4,3.3,1.3,6.6,2.5,9.7c1.2-3.1,2-6.4,2.5-9.7
		c0.3-2.2,0.5-4.5,0.6-6.7c2.2-0.1,4.5-0.3,6.7-0.6C1682.4,1566.8,1685.7,1565.9,1688.8,1564.7z"/>
	
		<linearGradient id="Path_10_2_" gradientUnits="userSpaceOnUse" x1="1077.1589" y1="2972.4514" x2="1076.6196" y2="2973.3997" gradientTransform="matrix(64.2679 0 0 -135.353 -67460.2031 404132.0938)">
		<stop  offset="0" style="stop-color:#FCBF1F"/>
		<stop  offset="1" style="stop-color:#FFD9A2"/>
	</linearGradient>
	<path id="Path_10_1_" class="st15" d="M1711.9,1659.8c0,0,8.5,6.5,8.5,16v112.9l29.6-30.1l24,32V1673c0,0-0.3-11.2-9.4-13.2H1711.9
		z"/>
	
		<linearGradient id="Path_11_2_" gradientUnits="userSpaceOnUse" x1="1076.5024" y1="2972.5374" x2="1077.0417" y2="2973.4856" gradientTransform="matrix(64.27 0 0 -175.3541 -67620.5234 523091.2188)">
		<stop  offset="0" style="stop-color:#FCBF1F"/>
		<stop  offset="1" style="stop-color:#FFD9A2"/>
	</linearGradient>
	<path id="Path_11_1_" class="st16" d="M1621.2,1660.8c0,0-8.5,6.5-8.5,16v151.6l-29.6-30.1l-24,32V1674c0,0,0.3-11.2,9.4-13.2
		H1621.2z"/>
</g>
</svg>
