<?xml version="1.0" encoding="iso-8859-1"?>
<!-- Generator: Adobe Illustrator 19.0.0, SVG Export Plug-In . SVG Version: 6.00 Build 0)  -->
<svg version="1.1" id="Layer_1" xmlns="http://www.w3.org/2000/svg" xmlns:xlink="http://www.w3.org/1999/xlink" x="0px" y="0px"
	 viewBox="0 0 512.001 512.001" style="enable-background:new 0 0 512.001 512.001;" xml:space="preserve">
<path style="fill:#90C8EC;" d="M199.202,171.109H30.24c-12.229,0-22.145,9.915-22.145,22.146v136.562
	c0,12.229,9.916,22.146,22.145,22.146h168.961V171.109H199.202z"/>
<path style="fill:#B1DBF2;" d="M481.76,171.109H311.565v180.853H481.76c12.231,0,22.146-9.917,22.146-22.146V193.255
	C503.905,181.024,493.991,171.109,481.76,171.109z"/>
<path style="fill:#90C8EC;" d="M481.76,171.109h-74.026v180.853h74.026c12.231,0,22.146-9.917,22.146-22.146V193.255
	C503.905,181.024,493.991,171.109,481.76,171.109z"/>
<path style="fill:#B1DBF2;" d="M30.24,171.109h74.026v180.853H30.24c-12.231,0-22.145-9.917-22.145-22.146V193.255
	C8.095,181.024,18.009,171.109,30.24,171.109z"/>
<path style="fill:#3A5D74;" d="M255.384,439.929c13.844,0,26.402,5.454,35.68,14.314v-53.069h-71.359v53.073
	C228.982,445.383,241.545,439.929,255.384,439.929z"/>
<path style="fill:#90C8EC;" d="M258.341,81.298h-5.912c-29.395,0-53.227,23.83-53.227,53.223V379.03
	c0,12.231,9.918,22.144,22.146,22.144h68.074c12.229,0,22.144-9.913,22.144-22.144V134.522
	C311.565,105.128,287.735,81.298,258.341,81.298z"/>
<path style="fill:#578CAD;" d="M285.777,491.6h21.278c0-28.538-23.132-51.671-51.671-51.671c-28.536,0-51.671,23.135-51.671,51.671
	h56.16"/>
<g style="opacity:0.2;">
	<path style="fill:#231F20;" d="M33.639,329.817V193.255c0-12.231,9.914-22.146,22.146-22.146H30.24
		c-12.231,0-22.145,9.915-22.145,22.146v136.562c0,12.229,9.914,22.146,22.145,22.146h25.544
		C43.553,351.963,33.639,342.046,33.639,329.817z"/>
</g>
<g style="opacity:0.2;">
	<path style="fill:#231F20;" d="M245.249,401.174h-25.544v53.073c6.952-6.642,15.749-11.369,25.544-13.321V401.174z"/>
</g>
<g style="opacity:0.2;">
	<path style="fill:#231F20;" d="M224.746,379.03V134.522c0-26.038,18.707-47.695,43.411-52.304c-3.183-0.595-6.46-0.92-9.817-0.92
		h-5.912c-29.395,0-53.227,23.83-53.227,53.223V379.03c0,12.231,9.918,22.144,22.146,22.144h25.544
		C234.664,401.174,224.746,391.261,224.746,379.03z"/>
</g>
<g style="opacity:0.2;">
	<path style="fill:#231F20;" d="M268.157,441.522c-4.085-1.038-8.364-1.594-12.773-1.594c-28.536,0-51.671,23.135-51.671,51.671
		h25.544C229.257,467.471,245.799,447.208,268.157,441.522z"/>
</g>
<circle style="fill:#578CAD;" cx="255.383" cy="139.343" r="20.914"/>
<g>
	<path style="fill:#231F20;" d="M481.76,163.014h-74.026H319.66v-28.492c0-32.078-24.767-58.465-56.181-61.086V20.399
		c0-4.472-3.623-8.095-8.095-8.095c-4.472,0-8.095,3.623-8.095,8.095v53.035c-31.415,2.622-56.183,29.008-56.183,61.086v28.492
		h-87.458H30.24C13.565,163.014,0,176.58,0,193.255v68.281v68.281c0,16.675,13.565,30.241,30.24,30.241h73.408h87.458v18.973
		c0,13.267,8.593,24.558,20.503,28.621v43.315c-9.914,10.673-15.992,24.953-15.992,40.634c0,4.472,3.623,8.095,8.095,8.095h56.16
		c4.472,0,8.095-3.623,8.095-8.095c0-4.472-3.623-8.095-8.095-8.095h-47.312c1.761-9.335,6.514-17.625,13.214-23.842
		c0.181-0.168,0.365-0.335,0.548-0.5c0.309-0.276,0.618-0.55,0.935-0.818c0.162-0.137,0.325-0.27,0.489-0.405
		c0.349-0.287,0.699-0.573,1.058-0.849c0.101-0.078,0.204-0.152,0.305-0.229c2.342-1.777,4.868-3.323,7.545-4.602
		c0.063-0.03,0.125-0.062,0.188-0.092c0.466-0.22,0.94-0.43,1.415-0.634c0.128-0.055,0.256-0.112,0.385-0.165
		c0.437-0.182,0.88-0.356,1.324-0.525c0.175-0.066,0.35-0.133,0.526-0.196c0.413-0.151,0.83-0.295,1.249-0.433
		c0.217-0.071,0.436-0.141,0.654-0.209c0.39-0.122,0.781-0.24,1.175-0.351c0.257-0.072,0.516-0.14,0.774-0.207
		c0.366-0.096,0.733-0.19,1.102-0.276c0.298-0.069,0.597-0.133,0.896-0.195c0.34-0.072,0.68-0.145,1.022-0.208
		c0.338-0.063,0.677-0.117,1.016-0.172c0.314-0.051,0.628-0.105,0.944-0.149c0.379-0.053,0.76-0.094,1.141-0.137
		c0.284-0.032,0.566-0.069,0.851-0.096c0.444-0.041,0.89-0.068,1.336-0.096c0.229-0.014,0.454-0.036,0.684-0.046
		c0.679-0.031,1.36-0.049,2.044-0.049c0.683,0,1.365,0.017,2.044,0.049c0.228,0.011,0.453,0.032,0.68,0.046
		c0.448,0.028,0.896,0.055,1.341,0.096c0.284,0.026,0.565,0.064,0.847,0.096c0.382,0.043,0.764,0.084,1.144,0.137
		c0.318,0.044,0.633,0.099,0.949,0.15c0.337,0.055,0.675,0.108,1.009,0.169c0.346,0.065,0.69,0.138,1.034,0.212
		c0.295,0.063,0.589,0.124,0.883,0.192c0.375,0.087,0.747,0.182,1.118,0.281c0.253,0.066,0.504,0.133,0.754,0.203
		c0.403,0.113,0.802,0.233,1.199,0.357c0.208,0.065,0.416,0.132,0.623,0.2c0.432,0.142,0.86,0.29,1.285,0.446
		c0.16,0.058,0.317,0.118,0.476,0.178c0.462,0.175,0.922,0.355,1.377,0.545c0.106,0.044,0.21,0.091,0.315,0.135
		c0.501,0.214,0.998,0.434,1.488,0.666c0.026,0.012,0.052,0.026,0.078,0.038c2.794,1.329,5.427,2.946,7.858,4.813
		c0.004,0.003,0.009,0.006,0.013,0.01c0.434,0.335,0.86,0.679,1.281,1.029c0.081,0.067,0.163,0.133,0.243,0.201
		c0.39,0.328,0.773,0.665,1.151,1.007c0.1,0.091,0.201,0.181,0.3,0.273c6.764,6.229,11.561,14.562,13.333,23.954h-12.429
		c-4.472,0-8.095,3.623-8.095,8.095s3.623,8.095,8.095,8.095h21.278c4.472,0,8.095-3.623,8.095-8.095
		c0-15.681-6.079-29.963-15.992-40.634v-43.315c11.909-4.063,20.501-15.354,20.501-28.621v-18.974h88.074h74.026
		c16.675,0,30.241-13.565,30.241-30.241v-68.281v-68.281C512,176.58,498.435,163.014,481.76,163.014z M481.76,179.204
		c7.748,0,14.051,6.303,14.051,14.051v60.186H415.83v-74.236h65.931V179.204z M399.639,179.204v74.236H319.66v-74.236H399.639z
		 M191.107,253.441h-79.363v-74.236h79.363V253.441z M16.19,193.255c0-7.748,6.303-14.051,14.05-14.051h65.313v74.236H16.19V193.255
		z M30.24,343.868c-7.746,0-14.05-6.303-14.05-14.051V269.63h79.363v74.236H30.24V343.868z M111.743,343.868v-74.236h79.363v74.236
		H111.743z M282.969,438.57c-0.41-0.214-0.834-0.4-1.25-0.606c-0.285-0.14-0.57-0.278-0.857-0.414
		c-0.643-0.304-1.291-0.6-1.944-0.881c-0.33-0.141-0.664-0.274-0.997-0.411c-0.64-0.26-1.278-0.522-1.927-0.761
		c-0.359-0.133-0.726-0.248-1.089-0.373c-1.028-0.355-2.065-0.683-3.112-0.982c-0.574-0.164-1.146-0.331-1.727-0.479
		c-0.477-0.121-0.958-0.225-1.44-0.333c-0.611-0.139-1.223-0.273-1.841-0.393c-0.462-0.09-0.926-0.171-1.391-0.249
		c-0.658-0.111-1.32-0.21-1.986-0.3c-0.435-0.058-0.869-0.118-1.306-0.166c-0.743-0.083-1.491-0.147-2.241-0.203
		c-0.367-0.027-0.731-0.064-1.099-0.084c-1.118-0.063-2.243-0.101-3.377-0.101c-1.133,0-2.259,0.039-3.377,0.101
		c-0.368,0.021-0.734,0.057-1.101,0.084c-0.749,0.056-1.496,0.119-2.237,0.202c-0.438,0.049-0.873,0.108-1.309,0.167
		c-0.665,0.09-1.325,0.189-1.983,0.3c-0.466,0.079-0.93,0.16-1.393,0.249c-0.618,0.12-1.23,0.255-1.841,0.393
		c-0.48,0.109-0.962,0.213-1.438,0.332c-0.585,0.148-1.16,0.316-1.738,0.482c-1.025,0.292-2.041,0.614-3.048,0.961
		c-0.383,0.133-0.77,0.255-1.15,0.394c-0.637,0.234-1.265,0.492-1.893,0.748c-0.346,0.141-0.695,0.281-1.038,0.427
		c-0.641,0.275-1.275,0.566-1.906,0.863c-0.305,0.145-0.609,0.292-0.912,0.441c-0.405,0.2-0.818,0.381-1.22,0.59v-29.302h55.168
		L282.969,438.57L282.969,438.57z M303.47,379.03c0,7.746-6.302,14.049-14.049,14.049h-68.074c-7.748,0-14.051-6.302-14.051-14.049
		v-27.068v-90.426V171.11v-36.588c0-24.884,20.246-45.128,45.132-45.128h5.912c24.885,0,45.131,20.244,45.131,45.128v36.588v90.426
		v90.426V379.03z M319.66,269.631h79.979v74.236H319.66V269.631z M481.76,343.868H415.83v-74.236h79.981v60.186
		C495.81,337.564,489.507,343.868,481.76,343.868z"/>
	<path style="fill:#231F20;" d="M255.384,290.967c-4.472,0-8.095,3.623-8.095,8.095v59.052c0,4.472,3.623,8.095,8.095,8.095
		c4.472,0,8.095-3.623,8.095-8.095v-59.052C263.479,294.591,259.856,290.967,255.384,290.967z"/>
	<path style="fill:#231F20;" d="M255.384,110.336c-15.995,0-29.007,13.014-29.007,29.009s13.013,29.009,29.007,29.009
		c15.997,0,29.012-13.014,29.012-29.009S271.382,110.336,255.384,110.336z M255.384,152.165c-7.068,0-12.817-5.751-12.817-12.819
		c0-7.069,5.75-12.819,12.817-12.819c7.07,0,12.822,5.751,12.822,12.819C268.206,146.414,262.454,152.165,255.384,152.165z"/>
</g>
<g>
</g>
<g>
</g>
<g>
</g>
<g>
</g>
<g>
</g>
<g>
</g>
<g>
</g>
<g>
</g>
<g>
</g>
<g>
</g>
<g>
</g>
<g>
</g>
<g>
</g>
<g>
</g>
<g>
</g>
</svg>
