<?xml version="1.0" encoding="iso-8859-1"?>
<!-- Generator: Adobe Illustrator 19.0.0, SVG Export Plug-In . SVG Version: 6.00 Build 0)  -->
<svg version="1.1" id="Layer_1" xmlns="http://www.w3.org/2000/svg" xmlns:xlink="http://www.w3.org/1999/xlink" x="0px" y="0px"
	 viewBox="0 0 512 512" style="enable-background:new 0 0 512 512;" xml:space="preserve">
<g transform="translate(1 1)">
	<path style="fill:#FFDD09;" d="M502.467,306.2c0,28.16-23.04,51.2-51.2,51.2s-51.2-23.04-51.2-51.2s23.04-51.2,51.2-51.2
		S502.467,278.04,502.467,306.2"/>
	<path style="fill:#FD9808;" d="M383,92.867c0,46.933-38.4,85.333-85.333,85.333s-85.333-38.4-85.333-85.333
		s38.4-85.333,85.333-85.333S383,45.933,383,92.867"/>
	<path style="fill:#FFDD09;" d="M357.4,92.867c0,46.933-32.427,85.333-72.533,85.333s-72.533-38.4-72.533-85.333
		S244.76,7.533,284.867,7.533S357.4,45.933,357.4,92.867"/>
	<path style="fill:#FFFFFF;" d="M299.373,178.2c2.56,0,4.267,0,6.827,0c-37.547-3.413-66.56-40.107-66.56-85.333
		S268.653,11.8,306.2,7.533c-2.56,0-4.267,0-6.827,0c-46.933,0-85.333,38.4-85.333,85.333S252.44,178.2,299.373,178.2"/>
	<path style="fill:#FD9808;" d="M314.733,348.867c0,84.48-69.12,153.6-153.6,153.6s-153.6-69.12-153.6-153.6
		s69.12-153.6,153.6-153.6S314.733,264.387,314.733,348.867"/>
	<path style="fill:#FFDD09;" d="M289.133,348.867c0,84.48-63.147,153.6-140.8,153.6s-140.8-69.12-140.8-153.6
		s63.147-153.6,140.8-153.6S289.133,264.387,289.133,348.867"/>
	<path style="fill:#FFFFFF;" d="M161.133,195.267c2.56,0,4.267,0,6.827,0c-75.093,4.267-134.827,70.827-134.827,153.6
		S92.867,498.2,167.96,502.467c-2.56,0-4.267,0-6.827,0c-84.48,0-153.6-69.12-153.6-153.6S76.653,195.267,161.133,195.267"/>
	<g>
		<path style="fill:#1CD759;" d="M161.133,195.267c-17.92,0-34.987,3.413-51.2,9.387c-1.707,6.827-4.267,11.947-7.68,17.067
			c-8.533,13.653,5.973,30.72,20.48,23.04c16.213-7.68,29.013-23.893,47.787-23.893c9.387,0,33.28-14.507,37.547-11.947
			c18.773,11.947-4.267,55.467-18.773,40.96c-13.653-13.653-22.187,5.973-15.36,12.8c6.827,7.68,4.267,22.187-5.12,26.453
			c-9.387,3.413-47.787-25.6-38.4-3.413c10.24,24.747-30.72,43.52,11.093,34.133c19.627-5.12,12.8,10.24,22.187,17.067
			c11.093,8.533,11.947,7.68,30.72-0.853c21.333-10.24,13.653,5.12,20.48,15.36c11.947,18.773,42.667,36.693,58.88,11.947
			c3.413-5.973,0-49.493,25.6-23.04h16.213C309.613,259.267,243.053,195.267,161.133,195.267"/>
		<path style="fill:#1CD759;" d="M186.733,408.6l-25.6-8.533h-25.6l-20.48-8.533L101.4,383l-34.133,8.533L50.2,400.067
			l-17.067,17.067l-6.827,5.973c26.453,47.787,76.8,79.36,134.827,79.36c14.507,0,29.013-2.56,42.667-5.973v-19.627l17.067-17.067
			l8.533-25.6h-42.667V408.6z"/>
	</g>
	<path d="M135.533,144.067c0,5.12-3.413,8.533-8.533,8.533s-8.533-3.413-8.533-8.533c0-5.12,3.413-8.533,8.533-8.533
		S135.533,138.947,135.533,144.067"/>
	<path d="M331.8,493.933c0,5.12-3.413,8.533-8.533,8.533c-5.12,0-8.533-3.413-8.533-8.533c0-5.12,3.413-8.533,8.533-8.533
		C328.387,485.4,331.8,488.813,331.8,493.933"/>
	<path d="M502.467,425.667c0,5.12-3.413,8.533-8.533,8.533c-5.12,0-8.533-3.413-8.533-8.533s3.413-8.533,8.533-8.533
		C499.053,417.133,502.467,420.547,502.467,425.667"/>
	<path d="M442.733,186.733c0,5.12-3.413,8.533-8.533,8.533c-5.12,0-8.533-3.413-8.533-8.533c0-5.12,3.413-8.533,8.533-8.533
		C439.32,178.2,442.733,181.613,442.733,186.733"/>
	<path d="M485.4,24.6c0,5.12-3.413,8.533-8.533,8.533c-5.12,0-8.533-3.413-8.533-8.533s3.413-8.533,8.533-8.533
		C481.987,16.067,485.4,19.48,485.4,24.6"/>
	<path d="M161.133,511C71.533,511-1,438.467-1,348.867s72.533-162.133,162.133-162.133s162.133,72.533,162.133,162.133
		S250.733,511,161.133,511z M161.133,203.8c-80.213,0-145.067,64.853-145.067,145.067S80.92,493.933,161.133,493.933
		S306.2,429.08,306.2,348.867S241.347,203.8,161.133,203.8z"/>
	<path d="M251.587,383.853c-18.773,0-36.693-14.507-45.227-27.307c-3.413-4.267-4.267-9.387-4.267-13.653v-0.853
		c-0.853,0-2.56,0.853-4.267,1.707l-2.56,1.707c-18.773,8.533-23.893,10.24-37.547-0.853c-5.12-4.267-6.827-9.387-8.533-13.653
		c0-0.853-0.853-2.56-1.707-3.413c0,0-1.707,0-5.12,0.853c-13.653,3.413-23.04,5.12-27.307-1.707
		c-4.267-5.973-0.853-11.947,2.56-17.067c4.267-6.827,7.68-13.653,5.12-20.48c-0.853-2.56-5.12-11.093,0.853-17.067
		c6.827-6.827,16.213-1.707,28.16,3.413c4.267,1.707,11.947,5.12,14.507,5.973c0.853-0.853,2.56-2.56,2.56-4.267
		c0.853-2.56,0-5.973-1.707-7.68c-6.827-7.68-5.12-20.48,1.707-26.453c5.973-5.12,15.36-7.68,26.453,2.56
		c2.56,0,7.68-5.973,10.24-14.507c0.853-1.707,1.707-8.533-0.853-11.947c-2.56,0.853-7.68,3.413-11.947,4.267
		c-8.533,3.413-16.213,6.827-23.04,6.827l0,0c-9.387,0-17.92,5.973-26.453,11.947c-5.12,4.267-11.093,7.68-17.067,11.093
		c-10.24,5.12-21.333,2.56-29.013-5.973c-7.68-8.533-8.533-20.48-2.56-29.013c2.56-4.267,5.973-9.387,6.827-14.507l0.853-5.12
		l4.267-1.707c17.92-5.973,35.84-9.387,53.76-9.387c86.187,0,157.013,65.707,161.28,150.187l1.707,11.093h-29.013l-2.56-2.56
		c-2.56-3.413-5.12-4.267-5.973-5.12c-1.707,3.413-2.56,10.24-2.56,13.653c-0.853,5.973-1.707,10.24-3.413,12.8
		C271.213,381.293,260.12,383.853,251.587,383.853L251.587,383.853z M203.8,324.973c2.56,0,4.267,0.853,6.827,1.707
		c5.973,3.413,6.827,9.387,7.68,14.507c0.853,2.56,0.853,5.12,1.707,6.827c6.827,10.24,19.627,20.48,30.72,20.48l0,0
		c5.12,0,9.387-2.56,12.8-7.68c0-0.853,0.853-4.267,0.853-6.827c1.707-11.093,3.413-23.893,14.507-28.16
		c8.533-2.56,16.213,3.413,21.333,7.68h3.413c-5.973-51.2-38.4-93.013-82.773-112.64c0.853,3.413,0.853,7.68,0,11.093
		c-1.707,12.8-9.387,27.307-21.333,30.72c-6.827,2.56-12.8,0.853-17.92-4.267c-1.707-1.707-2.56-1.707-3.413-2.56
		c0,0-0.853,2.56,0,3.413c5.12,5.12,7.68,14.507,5.12,22.187c-1.707,7.68-6.827,14.507-13.653,16.213
		c-6.827,2.56-16.213-1.707-27.307-6.827c-1.707-0.853-3.413-1.707-5.12-2.56c1.707,9.387-0.853,17.067-4.267,22.187
		c0.853,0,1.707-0.853,3.413-0.853c19.627-5.12,24.747,7.68,26.453,13.653c0.853,2.56,1.707,4.267,3.413,5.973
		c6.827,5.12,6.827,5.12,20.48-0.853l1.707-0.853C194.413,326.68,199.533,324.973,203.8,324.973z M264.387,359.96L264.387,359.96
		L264.387,359.96z M284.013,341.187L284.013,341.187L284.013,341.187z M116.76,214.04c-1.707,5.973-5.12,11.093-7.68,15.36
		c-2.56,3.413-0.853,6.827,0.853,9.387c0.853,0.853,4.267,4.267,8.533,1.707c5.12-2.56,9.387-5.973,14.507-9.387
		c10.24-6.827,22.187-15.36,36.693-15.36l0,0c2.56,0,11.093-3.413,16.213-5.973c0,0,0.853,0,0.853-0.853
		C164.547,205.507,139.8,207.213,116.76,214.04z"/>
	<path d="M161.133,511c-58.88,0-113.493-32.427-142.507-84.48c-1.707-3.413-0.853-7.68,1.707-10.24l6.827-5.973l16.213-16.213
		c0.853-0.853,1.707-0.853,2.56-1.707L63,383.853c0.853,0,0.853-0.853,1.707-0.853l34.133-8.533c2.56-0.853,4.267,0,6.827,0.853
		l12.8,7.68l18.773,7.68h23.893c0.853,0,1.707,0,2.56,0.853l25.6,8.533c3.413,0.853,5.973,4.267,5.973,7.68v17.067H229.4
		c2.56,0,5.12,1.707,6.827,3.413c1.707,2.56,1.707,5.12,0.853,7.68l-8.533,25.6c0,0.853-0.853,2.56-1.707,3.413l-14.507,15.36
		v16.213c0,3.413-2.56,6.827-5.973,8.533C191,508.44,176.493,511,161.133,511z M37.4,424.813
		c26.453,42.667,73.387,69.12,123.733,69.12c11.093,0,23.04-1.707,34.133-4.267v-12.8c0-2.56,0.853-4.267,2.56-5.973l15.36-15.36
		l4.267-12.8h-30.72c-5.12,0-8.533-3.413-8.533-8.533v-19.627l-18.773-5.973h-23.893c-0.853,0-2.56,0-3.413-0.853l-20.48-8.533
		c-0.853,0-0.853,0-0.853-0.853l-10.24-6.827l-29.867,7.68l-15.36,7.68L37.4,424.813z"/>
	<path d="M297.667,186.733c-52.053,0-93.867-41.813-93.867-93.867S245.613-1,297.667-1s93.867,41.813,93.867,93.867
		S349.72,186.733,297.667,186.733z M297.667,16.067c-42.667,0-76.8,34.133-76.8,76.8s34.133,76.8,76.8,76.8s76.8-34.133,76.8-76.8
		S340.333,16.067,297.667,16.067z"/>
	<path d="M451.267,365.933c-33.28,0-59.733-26.453-59.733-59.733s26.453-59.733,59.733-59.733S511,272.92,511,306.2
		S484.547,365.933,451.267,365.933z M451.267,263.533c-23.893,0-42.667,18.773-42.667,42.667c0,23.893,18.773,42.667,42.667,42.667
		c23.893,0,42.667-18.773,42.667-42.667C493.933,282.307,475.16,263.533,451.267,263.533z"/>
	<path d="M314.733,58.733H229.4c-5.12,0-8.533-3.413-8.533-8.533s3.413-8.533,8.533-8.533h85.333c5.12,0,8.533,3.413,8.533,8.533
		S319.853,58.733,314.733,58.733z"/>
	<path d="M297.667,152.6H229.4c-5.12,0-8.533-3.413-8.533-8.533c0-5.12,3.413-8.533,8.533-8.533h68.267
		c5.12,0,8.533,3.413,8.533,8.533C306.2,149.187,302.787,152.6,297.667,152.6z"/>
	<path d="M374.467,127h-51.2c-5.12,0-8.533-3.413-8.533-8.533s3.413-8.533,8.533-8.533h51.2c5.12,0,8.533,3.413,8.533,8.533
		S379.587,127,374.467,127z"/>
	<path d="M374.467,84.333h-25.6c-5.12,0-8.533-3.413-8.533-8.533s3.413-8.533,8.533-8.533h25.6c5.12,0,8.533,3.413,8.533,8.533
		C383,80.92,379.587,84.333,374.467,84.333z"/>
	<path d="M263.533,101.4h-51.2c-5.12,0-8.533-3.413-8.533-8.533s3.413-8.533,8.533-8.533h51.2c5.12,0,8.533,3.413,8.533,8.533
		S268.653,101.4,263.533,101.4z"/>
	<path d="M434.2,297.667h-25.6c-5.12,0-8.533-3.413-8.533-8.533c0-5.12,3.413-8.533,8.533-8.533h25.6
		c5.12,0,8.533,3.413,8.533,8.533C442.733,294.253,439.32,297.667,434.2,297.667z"/>
	<path d="M493.933,331.8h-25.6c-5.12,0-8.533-3.413-8.533-8.533c0-5.12,3.413-8.533,8.533-8.533h25.6
		c5.12,0,8.533,3.413,8.533,8.533C502.467,328.387,499.053,331.8,493.933,331.8z"/>
	<path d="M50.2,87.747L12.653,50.2L50.2,12.653L87.747,50.2L50.2,87.747z M36.547,50.2L50.2,63.853L63.853,50.2L50.2,36.547
		L36.547,50.2z"/>
	<path d="M50.2,33.133c-5.12,0-8.533-3.413-8.533-8.533V7.533C41.667,2.413,45.08-1,50.2-1s8.533,3.413,8.533,8.533V24.6
		C58.733,29.72,55.32,33.133,50.2,33.133z"/>
	<path d="M92.867,58.733H75.8c-5.12,0-8.533-3.413-8.533-8.533s3.413-8.533,8.533-8.533h17.067c5.12,0,8.533,3.413,8.533,8.533
		S97.987,58.733,92.867,58.733z"/>
	<path d="M50.2,101.4c-5.12,0-8.533-3.413-8.533-8.533V75.8c0-5.12,3.413-8.533,8.533-8.533s8.533,3.413,8.533,8.533v17.067
		C58.733,97.987,55.32,101.4,50.2,101.4z"/>
	<path d="M24.6,58.733H7.533C2.413,58.733-1,55.32-1,50.2s3.413-8.533,8.533-8.533H24.6c5.12,0,8.533,3.413,8.533,8.533
		S29.72,58.733,24.6,58.733z"/>
</g>
<g>
</g>
<g>
</g>
<g>
</g>
<g>
</g>
<g>
</g>
<g>
</g>
<g>
</g>
<g>
</g>
<g>
</g>
<g>
</g>
<g>
</g>
<g>
</g>
<g>
</g>
<g>
</g>
<g>
</g>
</svg>
