<svg enable-background="new 0 0 128 128" viewBox="0 0 128 128" xmlns="http://www.w3.org/2000/svg" xmlns:xlink="http://www.w3.org/1999/xlink"><linearGradient id="a" gradientUnits="userSpaceOnUse" x1="48.18" x2="48.18" y1="12.041" y2="67.986"><stop offset=".2463" stop-color="#f44336"/><stop offset=".9246" stop-color="#d32f2f"/></linearGradient><path d="m98.05 42.33c-6.44 0-11.65 5.22-11.65 11.65 0 6.44 5.22 11.65 11.65 11.65 6.44 0 11.65-5.22 11.65-11.65 0-6.44-5.22-11.65-11.65-11.65zm.48 18.82c-3.61 0-7.33-3.28-7.33-7.43s4.16-6.82 7.34-6.82 6.69 2.67 6.69 6.82-3.09 7.43-6.7 7.43z" fill="#424242"/><path d="m98.05 43.33c5.87 0 10.65 4.78 10.65 10.65s-4.78 10.65-10.65 10.65-10.65-4.78-10.65-10.65c-.01-5.87 4.77-10.65 10.65-10.65m.48 18.82c4.25 0 7.71-3.78 7.71-8.43 0-4.68-3.98-7.82-7.69-7.82-3.48 0-8.34 2.97-8.34 7.82-.01 4.97 4.38 8.43 8.32 8.43m-.48-19.82c-6.44 0-11.65 5.22-11.65 11.65 0 6.44 5.22 11.65 11.65 11.65 6.44 0 11.65-5.22 11.65-11.65 0-6.44-5.22-11.65-11.65-11.65zm.48 18.82c-3.61 0-7.33-3.28-7.33-7.43s4.16-6.82 7.34-6.82 6.69 2.67 6.69 6.82-3.09 7.43-6.7 7.43z" fill="#eee" opacity=".2"/><path d="m111.97 42.95-9.09 1.74-1.45-3.94c-1.52-4.14-3.85-7.95-6.84-11.19l-1.01-1.09c-.87-.94-.64-2.45.47-3.09l1.01-.58c1.07-.61 2.41-.52 3.36.25 4.78 3.84 9.07 9.39 11.72 14.44z" fill="#757575"/><path d="m66.83 80.08c2.75-.15 4.68-1.78 7.23-2.07 3.6-.41 4.95 3.4 4.74 6.43-.54 7.58-5.12 13.45-2.29 21.33 3.61 10.08 16.81 13.07 25.61 8.02 6.95-3.99 7.4-10.7 7.42-17.78.03-9.72.06-19.43.09-29.15.02-7.49.05-14.98.07-22.47.02-4.83-7.48-4.83-7.5 0-.05 15.05-.1 30.11-.15 45.16-.01 4.16.48 12.43-2.33 16.04-2.82 3.62-7.93 3.91-11.87 2.15-6.75-3.04-4.78-10.67-3.06-16.29 1.91-6.24 2.54-13.48-2.86-18.28-1.96-1.75-4.54-2.68-7.17-2.68-2.93-.01-5.22 1.96-7.94 2.11-4.79.24-4.82 7.74.01 7.48z" fill="#757575"/><path d="m96.58 26.39c.16 0 .39.04.6.21 4.28 3.44 8.46 8.6 11.2 13.81l.58 1.1c-.43.14-.81.43-1.06.82-.3.46-.39 1.02-.26 1.56.05.19.07.34.07.5l-.03 9.63-.04 12.86-.1 29.12c-.02 7.02-.51 12.66-6.42 16.05-2.44 1.4-5.33 2.15-8.35 2.15-6.75 0-12.4-3.57-14.38-9.11-1.58-4.42-.52-8.1.7-12.37.73-2.55 1.49-5.19 1.7-8.14.19-2.67-.58-5.21-2.06-6.8-1.1-1.18-2.53-1.8-4.15-1.8-.24 0-.49.01-.75.04-1.46.17-2.73.68-3.84 1.13-1.15.47-2.14.87-3.27.93h-.14c-1.15 0-1.35-.93-1.37-1.49-.01-.2 0-1.93 1.72-2.02 1.84-.1 3.44-.66 4.99-1.19 1.08-.37 2.1-.73 3.22-.95.22-.04.45-.06.68-.06 1.42 0 3.12.81 4.77 2.28 3.83 3.41 4.58 8.7 2.28 16.2-1.47 4.8-4.54 14.8 4.15 18.71 1.79.8 3.75 1.23 5.67 1.23 3.55 0 6.6-1.41 8.59-3.97 2.89-3.71 2.82-10.85 2.77-15.57-.01-.61-.01-1.18-.01-1.69l.15-45.16c0-.17.03-.33.09-.54.12-.41.1-.84-.05-1.24l-.94-2.56c-1.62-4.41-4.06-8.4-7.25-11.86l-1.01-1.09 1.01-.58c.18-.09.36-.14.54-.14m0-2c-.52 0-1.04.13-1.51.4l-1.01.58c-1.11.64-1.34 2.15-.47 3.09l1.01 1.09c2.99 3.25 5.32 7.05 6.84 11.19l.94 2.56c-.09.33-.16.69-.16 1.08-.05 15.05-.1 30.11-.15 45.16-.01 4.16.48 12.43-2.33 16.04-1.74 2.23-4.35 3.2-7.01 3.2-1.66 0-3.34-.38-4.85-1.05-6.75-3.04-4.78-10.67-3.06-16.29 1.91-6.24 2.54-13.48-2.86-18.28-1.69-1.5-3.88-2.78-6.1-2.78-.36 0-.71.03-1.07.1-2.94.58-5.22 1.96-7.94 2.11-4.72.25-4.83 7.51-.24 7.51.08 0 .16 0 .24-.01 2.75-.15 4.68-1.78 7.23-2.07.18-.02.35-.03.52-.03 3.21 0 4.42 3.58 4.22 6.46-.54 7.58-5.12 13.45-2.29 21.33 2.46 6.85 9.34 10.43 16.26 10.43 3.26 0 6.53-.79 9.34-2.41 6.95-3.99 7.4-10.7 7.42-17.78.03-9.72.06-19.43.09-29.15.02-7.49.05-14.98.07-22.47 0-.36-.05-.68-.12-.98l2.39-.46-1.82-3.47c-2.65-5.05-6.94-10.6-11.72-14.44-.55-.44-1.2-.66-1.86-.66z" fill="#424242" opacity=".2"/><path d="m70.08 121.92h-43.93l-4.11-61.8h52.28z" fill="#c62828"/><path d="m74.12 67.99h-51.88c-4.42 0-8-3.58-8-8v-39.95c0-4.42 3.58-8 8-8h51.88c4.42 0 8 3.58 8 8v39.94c0 4.42-3.58 8.01-8 8.01z" fill="url(#a)"/><path d="m66.94 59.98h-37.52c-4.08 0-7.38-3.3-7.38-7.38v-25.18c0-4.08 3.3-7.38 7.38-7.38h37.53c4.08 0 7.38 3.3 7.38 7.38v25.18c-.01 4.08-3.31 7.38-7.39 7.38z" fill="#81d4fa"/><g fill="#455a64"><path d="m51.85 37.17h-19.96c-1.1 0-2-.9-2-2v-3.99c0-1.1.9-2 2-2h19.96c1.1 0 2 .9 2 2v3.99c0 1.11-.9 2-2 2z"/><path d="m64.47 37.17h-2.14c-1.1 0-2-.9-2-2v-3.99c0-1.1.9-2 2-2h2.14c1.1 0 2 .9 2 2v3.99c0 1.11-.89 2-2 2z"/><path d="m51.85 50.84h-19.96c-1.1 0-2-.9-2-2v-3.99c0-1.1.9-2 2-2h19.96c1.1 0 2 .9 2 2v3.99c0 1.11-.9 2-2 2z"/><path d="m64.47 50.84h-2.14c-1.1 0-2-.9-2-2v-3.99c0-1.1.9-2 2-2h2.14c1.1 0 2 .9 2 2v3.99c0 1.11-.89 2-2 2z"/></g><path d="m74.06 15c2.74 0 4.94 2.21 4.94 5.04v39.94c0 2.82-2.14 5.02-4.88 5.02h-.4c-1.58 0-2.89 1.22-2.99 2.8l-3.46 51.2h-38.31l-3.35-51.2c-.1-1.58-1.41-2.8-2.99-2.8h-.38c-2.84 0-5.24-2.3-5.24-5.01v-39.95c0-2.69 2.45-5.04 5.24-5.04h51.76m.12-3h-51.88c-4.42 0-8.24 3.62-8.24 8.04v39.94c0 4.42 3.82 8.02 8.24 8.02h.38l3.54 54h43.92l3.65-54h.4c4.42 0 7.88-3.6 7.88-8.01v-39.95c-.01-4.42-3.47-8.04-7.89-8.04z" fill="#424242" opacity=".2"/><path d="m82.06 124h-67.89v-3.16c0-2.68 2.18-4.86 4.86-4.86h57.96c2.79 0 5.07 2.28 5.07 5.07z" fill="#424242"/><path d="m76.99 117.98c1.69 0 3.07 1.38 3.07 3.07v.95h-63.89v-1.16c0-1.58 1.28-2.86 2.86-2.86zm0-2h-57.96c-2.68 0-4.86 2.18-4.86 4.86v3.16h67.88v-2.95c.01-2.79-2.27-5.07-5.06-5.07z" fill="#eee" opacity=".2"/><path d="m66.94 22.04c2.97 0 5.38 2.41 5.38 5.38v25.18c0 2.97-2.41 5.38-5.38 5.38h-37.52c-2.97 0-5.38-2.41-5.38-5.38v-25.18c0-2.97 2.41-5.38 5.38-5.38zm0-2h-37.52c-4.08 0-7.38 3.3-7.38 7.38v25.18c0 4.08 3.3 7.38 7.38 7.38h37.53c4.08 0 7.38-3.3 7.38-7.38v-25.18c-.01-4.07-3.31-7.38-7.39-7.38z" fill="#424242" opacity=".2"/><path d="m110.71 68.33h-9.54c-1.72 0-3.12-1.4-3.12-3.12v-21.87c0-1.72 1.4-3.12 3.12-3.12h9.54c1.72 0 3.12 1.4 3.12 3.12v21.86c0 1.73-1.4 3.13-3.12 3.13z" fill="#bdbdbd"/><path d="m110.71 42.22c.62 0 1.12.5 1.12 1.12v21.86c0 .62-.5 1.12-1.12 1.12h-9.54c-.62 0-1.12-.5-1.12-1.12v-21.86c0-.62.5-1.12 1.12-1.12zm0-2h-9.54c-1.72 0-3.12 1.4-3.12 3.12v21.86c0 1.72 1.4 3.12 3.12 3.12h9.54c1.72 0 3.12-1.4 3.12-3.12v-21.86c0-1.72-1.4-3.12-3.12-3.12z" fill="#424242" opacity=".2"/></svg>