<?xml version="1.0" encoding="iso-8859-1"?>
<!-- Generator: Adobe Illustrator 19.0.0, SVG Export Plug-In . SVG Version: 6.00 Build 0)  -->
<svg version="1.1" id="Layer_1" xmlns="http://www.w3.org/2000/svg" xmlns:xlink="http://www.w3.org/1999/xlink" x="0px" y="0px"
	 viewBox="0 0 460.002 460.002" style="enable-background:new 0 0 460.002 460.002;" xml:space="preserve">
<circle style="fill:#FFD000;" cx="235.362" cy="239.77" r="181.67"/>
<path style="fill:#F3C200;" d="M235.364,58.096c100.335,0,181.673,81.339,181.673,181.674s-81.338,181.672-181.673,181.672
	C235.364,328.998,235.364,183.008,235.364,58.096z"/>
<g>
	<path style="fill:#FFAC00;" d="M401.365,165.857c-85.77-1.289-127.916-17.97-166-33.978
		c-33.619-14.131-64.073-27.738-118.576-29.768c-3.382,2.92-6.686,5.98-9.896,9.19c-26.125,26.125-42.618,58.229-49.503,91.907
		c49.871,11.646,111.898,55.639,177.806,60.362c0.056,0.004,0.113,0.006,0.169,0.01c59.161,4.161,121.44-32.859,180.856-41.074
		C414.38,203.113,409.422,183.963,401.365,165.857z"/>
	<path style="fill:#FFAC00;" d="M272.371,328.998c-13.283,0-25.56,0.696-37.006,1.887c-59.466,6.189-96.379,25.829-133.896,31.671
		c1.763,1.92,3.563,3.817,5.424,5.678c35.476,35.476,81.974,53.214,128.472,53.213c46.494-0.001,92.988-17.739,128.461-53.213
		c2.945-2.945,5.755-5.972,8.456-9.062C357.122,346.74,326.082,328.998,272.371,328.998z"/>
</g>
<g>
	<path style="fill:#ED9200;" d="M235.365,263.58c59.161,4.161,121.44-32.859,180.856-41.074
		c-1.84-19.393-6.799-38.543-14.855-56.649c-85.77-1.289-127.916-17.97-166-33.978L235.365,263.58L235.365,263.58z"/>
	<path style="fill:#ED9200;" d="M235.365,330.885v90.562c46.494-0.001,92.988-17.739,128.461-53.213
		c2.945-2.945,5.755-5.972,8.456-9.062c-15.161-12.432-46.201-30.174-99.912-30.174
		C259.088,328.998,246.811,329.694,235.365,330.885z"/>
</g>
<path style="fill:#84D03E;" d="M451.962,57.164c-8.526-8.527-21.706-10.212-39.171-5.012c-2.407,0.717-4.92,1.569-7.535,2.554
	c8.167-21.74,7.251-36.996-2.504-46.751c-17.16-17.161-49.062-1.945-59.546,3.056c-21.063,10.047-47.552,27.187-76.829,49.681
	c11.715,1.985,23.269,5.13,34.487,9.419c18.428-13.282,35.234-23.905,49.388-31.167c20.358-10.446,29.409-10.962,32.241-10.742
	c0.302,4.21-1.03,22.346-33.901,70.295c-27.404,39.972-67.684,87.235-113.557,133.271c-0.543,0.544-1.082,1.09-1.626,1.634
	c-46.55,46.549-94.46,87.456-134.906,115.184c-48.278,33.097-66.339,34.209-70.378,33.896c-0.804-6.3,5.092-29.443,38.442-76.67
	c-4.368-11.214-7.586-22.772-9.643-34.495c-21.183,28.028-37.264,53.336-46.648,73.455C5.533,354.941-8.9,385.886,7.96,402.748
	c5.345,5.345,12.339,8.039,21.148,8.039c7.267,0,15.772-1.838,25.601-5.53c-0.984,2.612-1.836,5.123-2.552,7.528
	c-5.2,17.466-3.515,30.645,5.012,39.171c5.345,5.346,12.339,8.04,21.148,8.04c18.042,0,43.693-11.304,78.362-34.284
	c24.056-15.945,50.72-36.524,78.355-60.346c22.153-19.097,44.93-40.277,67.494-62.841c50.712-50.711,94.461-102.508,123.188-145.849
	C459.917,105.078,468.256,73.458,451.962,57.164z M397.802,147.706c-27.729,40.446-68.634,88.356-115.184,134.905
	c-15.819,15.819-31.795,30.984-47.582,45.204c-30.668,27.624-60.622,51.674-87.323,69.98c-48.217,33.056-66.3,34.223-70.363,33.896
	c-0.511-4.542,2.271-19.187,20.019-48.665c3.281-2.06,6.645-4.231,10.103-6.524c38.141-25.281,82.829-62.196,127.564-105.25
	c6.1-5.871,12.201-11.853,18.286-17.938c50.711-50.711,94.46-102.508,123.187-145.849c2.293-3.459,4.46-6.821,6.521-10.102
	c29.482-17.75,44.135-20.529,48.669-20.021C432.019,81.422,430.855,99.493,397.802,147.706z"/>
<path style="fill:#70B235;" d="M451.962,57.164c-8.526-8.527-21.706-10.212-39.171-5.012c-2.407,0.717-4.92,1.569-7.535,2.554
	c8.167-21.74,7.251-36.996-2.504-46.751c-17.16-17.161-49.062-1.945-59.546,3.056c-21.063,10.047-47.551,27.187-76.829,49.681
	c11.715,1.985,23.269,5.13,34.487,9.419c18.428-13.282,35.234-23.905,49.388-31.167c20.358-10.446,29.409-10.962,32.241-10.742
	c0.302,4.21-1.03,22.346-33.901,70.294c-27.404,39.972-67.684,87.235-113.557,133.271v39.484c6.1-5.871,12.201-11.853,18.286-17.938
	c50.712-50.711,94.46-102.508,123.187-145.849c2.293-3.459,4.46-6.821,6.521-10.102c29.482-17.75,44.135-20.529,48.669-20.021
	c0.321,4.079-0.843,22.151-33.896,70.363c-27.729,40.446-68.634,88.356-115.184,134.905c-15.819,15.819-31.795,30.984-47.582,45.204
	v37.549c22.153-19.097,44.93-40.277,67.494-62.841c50.712-50.711,94.461-102.508,123.188-145.849
	C459.917,105.078,468.256,73.458,451.962,57.164z"/>
<g>
</g>
<g>
</g>
<g>
</g>
<g>
</g>
<g>
</g>
<g>
</g>
<g>
</g>
<g>
</g>
<g>
</g>
<g>
</g>
<g>
</g>
<g>
</g>
<g>
</g>
<g>
</g>
<g>
</g>
</svg>
