<?xml version="1.0" encoding="iso-8859-1"?>
<!-- Generator: Adobe Illustrator 19.0.0, SVG Export Plug-In . SVG Version: 6.00 Build 0)  -->
<svg version="1.1" id="Layer_1" xmlns="http://www.w3.org/2000/svg" xmlns:xlink="http://www.w3.org/1999/xlink" x="0px" y="0px"
	 viewBox="0 0 512 512" style="enable-background:new 0 0 512 512;" xml:space="preserve">
<g>
	<path style="fill:#B0B6BB;" d="M260.339,86.78c-4.799,0-8.678-3.888-8.678-8.678V43.39c0-4.79,3.879-8.678,8.678-8.678
		s8.678,3.888,8.678,8.678v34.712C269.017,82.892,265.138,86.78,260.339,86.78"/>
	<path style="fill:#E8EDEE;" d="M321.086,381.831H199.595c-9.589,0-17.356-7.767-17.356-17.356V225.627
		c0-9.589,7.767-17.356,17.356-17.356h121.492c9.58,0,17.356,7.767,17.356,17.356v138.847
		C338.442,374.064,330.667,381.831,321.086,381.831"/>
	<g>
		<polygon style="fill:#B0B6BB;" points="234.305,433.898 286.373,433.898 286.373,381.831 234.305,381.831 		"/>
		<polygon style="fill:#B0B6BB;" points="138.847,312.407 182.237,312.407 182.237,260.339 138.847,260.339 		"/>
		<polygon style="fill:#B0B6BB;" points="338.441,312.407 381.831,312.407 381.831,260.339 338.441,260.339 		"/>
		<polygon style="fill:#B0B6BB;" points="234.305,208.271 286.373,208.271 286.373,138.847 234.305,138.847 		"/>
	</g>
	<g>
		<path style="fill:#E8EDEE;" d="M216.949,433.898h86.78v34.712c0,23.96-19.43,43.39-43.39,43.39s-43.39-19.43-43.39-43.39V433.898z
			"/>
		<path style="fill:#E8EDEE;" d="M182.237,78.102c0,43.138,34.964,78.102,78.102,78.102s78.102-34.964,78.102-78.102H182.237z"/>
	</g>
	<polygon style="fill:#434C6D;" points="242.983,43.39 277.695,43.39 277.695,8.678 242.983,8.678 	"/>
	<polygon style="fill:#F3D55B;" points="8.678,373.153 138.847,373.153 138.847,199.593 8.678,199.593 	"/>
	<g>
		<polygon style="fill:#CBB292;" points="43.39,373.153 60.746,373.153 60.746,199.593 43.39,199.593 		"/>
		<polygon style="fill:#CBB292;" points="86.78,373.153 104.136,373.153 104.136,199.593 86.78,199.593 		"/>
		<polygon style="fill:#CBB292;" points="8.678,251.661 138.847,251.661 138.847,234.305 8.678,234.305 		"/>
		<polygon style="fill:#CBB292;" points="8.678,295.051 138.847,295.051 138.847,277.695 8.678,277.695 		"/>
		<polygon style="fill:#CBB292;" points="8.678,338.441 138.847,338.441 138.847,321.085 8.678,321.085 		"/>
	</g>
	<polygon style="fill:#F3D55B;" points="381.831,373.153 512,373.153 512,199.593 381.831,199.593 	"/>
	<g>
		<polygon style="fill:#CBB292;" points="416.542,373.153 433.898,373.153 433.898,199.593 416.542,199.593 		"/>
		<polygon style="fill:#CBB292;" points="459.932,373.153 477.288,373.153 477.288,199.593 459.932,199.593 		"/>
		<polygon style="fill:#CBB292;" points="381.831,251.661 512,251.661 512,234.305 381.831,234.305 		"/>
		<polygon style="fill:#CBB292;" points="381.831,295.051 512,295.051 512,277.695 381.831,277.695 		"/>
		<polygon style="fill:#CBB292;" points="381.831,338.441 512,338.441 512,321.085 381.831,321.085 		"/>
	</g>
	<polygon style="fill:#B0B6BB;" points="234.305,338.441 286.373,338.441 286.373,251.661 234.305,251.661 	"/>
	<polygon style="fill:#FFFFFF;" points="234.305,303.729 286.373,303.729 286.373,286.373 234.305,286.373 	"/>
	<g>
		<path style="fill:#F3D55B;" d="M130.169,147.525c0,4.79-3.888,8.678-8.678,8.678s-8.678-3.888-8.678-8.678
			s3.888-8.678,8.678-8.678S130.169,142.735,130.169,147.525"/>
		<path style="fill:#F3D55B;" d="M459.932,433.898c0,4.79-3.888,8.678-8.678,8.678s-8.678-3.888-8.678-8.678
			s3.888-8.678,8.678-8.678S459.932,429.108,459.932,433.898"/>
		<path style="fill:#F3D55B;" d="M78.102,468.61c0,4.79-3.888,8.678-8.678,8.678s-8.678-3.888-8.678-8.678s3.888-8.678,8.678-8.678
			S78.102,463.82,78.102,468.61"/>
		<path style="fill:#F3D55B;" d="M416.542,86.78c0,4.79-3.888,8.678-8.678,8.678s-8.678-3.888-8.678-8.678s3.888-8.678,8.678-8.678
			S416.542,81.989,416.542,86.78"/>
		<path style="fill:#F3D55B;" d="M38.305,52.068l13.763,13.763l13.763-13.763L52.069,38.305L38.305,52.068z M52.069,90.372
			L13.764,52.068l38.305-38.305l38.305,38.305L52.069,90.372z"/>
		<path style="fill:#F3D55B;" d="M52.068,34.712c-4.799,0-8.678-3.888-8.678-8.678V8.678C43.39,3.888,47.269,0,52.068,0
			s8.678,3.888,8.678,8.678v17.356C60.746,30.824,56.867,34.712,52.068,34.712"/>
		<path style="fill:#F3D55B;" d="M95.458,60.746H78.102c-4.799,0-8.678-3.888-8.678-8.678s3.879-8.678,8.678-8.678h17.356
			c4.799,0,8.678,3.888,8.678,8.678S100.257,60.746,95.458,60.746"/>
		<path style="fill:#F3D55B;" d="M52.068,104.136c-4.799,0-8.678-3.888-8.678-8.678V78.102c0-4.79,3.879-8.678,8.678-8.678
			s8.678,3.888,8.678,8.678v17.356C60.746,100.248,56.867,104.136,52.068,104.136"/>
		<path style="fill:#F3D55B;" d="M26.034,60.746H8.678C3.879,60.746,0,56.858,0,52.068s3.879-8.678,8.678-8.678h17.356
			c4.799,0,8.678,3.888,8.678,8.678S30.833,60.746,26.034,60.746"/>
	</g>
	<path style="fill:#B0B6BB;" d="M260.339,468.61c-4.799,0-8.678,3.888-8.678,8.678v33.835c2.803,0.573,5.701,0.876,8.678,0.876
		c2.977,0,5.875-0.304,8.678-0.876v-33.835C269.017,472.498,265.138,468.61,260.339,468.61"/>
</g>
<g>
</g>
<g>
</g>
<g>
</g>
<g>
</g>
<g>
</g>
<g>
</g>
<g>
</g>
<g>
</g>
<g>
</g>
<g>
</g>
<g>
</g>
<g>
</g>
<g>
</g>
<g>
</g>
<g>
</g>
</svg>
