<?xml version="1.0" encoding="iso-8859-1"?>
<!-- Generator: Adobe Illustrator 19.0.0, SVG Export Plug-In . SVG Version: 6.00 Build 0)  -->
<svg version="1.1" id="Layer_1" xmlns="http://www.w3.org/2000/svg" xmlns:xlink="http://www.w3.org/1999/xlink" x="0px" y="0px"
	 viewBox="0 0 512 512" style="enable-background:new 0 0 512 512;" xml:space="preserve">
<g>
	<g>
		<path style="fill:#F3D55B;" d="M138.847,147.525c0,4.79-3.888,8.678-8.678,8.678s-8.678-3.888-8.678-8.678
			s3.888-8.678,8.678-8.678S138.847,142.735,138.847,147.525"/>
		<path style="fill:#F3D55B;" d="M338.441,503.322c0,4.79-3.888,8.678-8.678,8.678s-8.678-3.888-8.678-8.678
			s3.888-8.678,8.678-8.678S338.441,498.532,338.441,503.322"/>
		<path style="fill:#F3D55B;" d="M512,433.898c0,4.79-3.888,8.678-8.678,8.678s-8.678-3.888-8.678-8.678s3.888-8.678,8.678-8.678
			S512,429.108,512,433.898"/>
		<path style="fill:#F3D55B;" d="M451.254,190.915c0,4.79-3.888,8.678-8.678,8.678s-8.678-3.888-8.678-8.678
			s3.888-8.678,8.678-8.678S451.254,186.125,451.254,190.915"/>
		<path style="fill:#F3D55B;" d="M494.644,26.034c0,4.79-3.888,8.678-8.678,8.678s-8.678-3.888-8.678-8.678s3.888-8.678,8.678-8.678
			S494.644,21.244,494.644,26.034"/>
	</g>
	<path style="fill:#4482C3;" d="M321.085,355.797c0,86.268-69.936,156.203-156.203,156.203S8.678,442.064,8.678,355.797
		s69.936-156.203,156.203-156.203S321.085,269.529,321.085,355.797"/>
	<g>
		<path style="fill:#A4E869;" d="M164.881,199.593c-18.328,0-35.84,3.324-52.181,9.121c-1.345,6.916-4.643,12.453-8.018,17.72
			c-8.773,13.685,5.988,30.937,20.61,23.856c16.401-7.94,29.757-24.706,48.406-24.602c9.52,0.052,33.887-14.996,38.548-11.932
			c18.831,12.41-4.313,56.381-18.718,41.75c-13.85-13.859-22.459,6.005-15.976,12.939c7.125,7.628,4.556,22.997-5.311,26.529
			c-9.928,3.549-48.892-26.346-39.32-3.688c10.526,25.149-31.527,44.57,10.926,34.434c20.011-4.79,13.364,10.431,22.797,17.703
			c11.255,8.635,12.427,7.715,31.111-0.929c21.912-9.997,13.676,5.597,20.393,15.785c12.574,19.031,43.503,37.289,59.713,12.141
			c3.818-5.927,0.382-50.15,25.869-23.3h16.913C316.121,264.912,248.225,199.593,164.881,199.593"/>
		<path style="fill:#A4E869;" d="M190.915,416.542l-26.034-8.678h-26.034l-21.009-8.739l-13.703-8.617l-34.712,8.678l-17.356,8.678
			L34.712,425.22l-6.76,5.719C54.515,479.249,105.863,512,164.881,512c15.074,0,29.601-2.248,43.39-6.239v-19.794l17.356-17.356
			l8.678-26.034h-43.39V416.542z"/>
	</g>
	<path style="fill:#D75A4A;" d="M390.508,95.458c0,47.928-38.851,86.78-86.78,86.78s-86.78-38.851-86.78-86.78
		s38.851-86.78,86.78-86.78S390.508,47.529,390.508,95.458"/>
	<path style="fill:#ADD7DB;" d="M512,312.407c0,28.759-23.309,52.068-52.068,52.068c-28.759,0-52.068-23.309-52.068-52.068
		c0-28.759,23.309-52.068,52.068-52.068C488.691,260.339,512,283.648,512,312.407"/>
	<g>
		<path style="fill:#F3D55B;" d="M38.305,52.068l13.763,13.763l13.763-13.763L52.069,38.305L38.305,52.068z M52.069,90.372
			L13.764,52.068l38.305-38.305l38.305,38.305L52.069,90.372z"/>
		<path style="fill:#F3D55B;" d="M52.068,34.712c-4.79,0-8.678-3.888-8.678-8.678V8.678C43.39,3.888,47.278,0,52.068,0
			s8.678,3.888,8.678,8.678v17.356C60.746,30.824,56.858,34.712,52.068,34.712"/>
		<path style="fill:#F3D55B;" d="M95.458,60.746H78.102c-4.79,0-8.678-3.888-8.678-8.678s3.888-8.678,8.678-8.678h17.356
			c4.79,0,8.678,3.888,8.678,8.678S100.248,60.746,95.458,60.746"/>
		<path style="fill:#F3D55B;" d="M52.068,104.136c-4.79,0-8.678-3.888-8.678-8.678V78.102c0-4.79,3.888-8.678,8.678-8.678
			s8.678,3.888,8.678,8.678v17.356C60.746,100.248,56.858,104.136,52.068,104.136"/>
		<path style="fill:#F3D55B;" d="M26.034,60.746H8.678C3.888,60.746,0,56.858,0,52.068s3.888-8.678,8.678-8.678h17.356
			c4.79,0,8.678,3.888,8.678,8.678S30.824,60.746,26.034,60.746"/>
	</g>
	<g>
		<path style="fill:#E57E25;" d="M386.524,69.424h-30.729c-4.79,0-8.678,3.888-8.678,8.678s3.888,8.678,8.678,8.678h34.278
			C389.474,80.792,388.268,74.986,386.524,69.424"/>
		<path style="fill:#E57E25;" d="M388.765,112.814h-59.001c-4.79,0-8.678,3.888-8.678,8.678s3.888,8.678,8.678,8.678h53.474
			C385.65,124.65,387.541,118.853,388.765,112.814"/>
		<path style="fill:#E57E25;" d="M321.085,43.39h-86.658c-4.027,5.354-7.489,11.143-10.205,17.356h96.863
			c4.79,0,8.678-3.888,8.678-8.678S325.875,43.39,321.085,43.39"/>
		<path style="fill:#E57E25;" d="M269.017,86.78h-51.634c-0.278,2.855-0.434,5.745-0.434,8.678c0,2.933,0.156,5.823,0.434,8.678
			h51.634c4.79,0,8.678-3.888,8.678-8.678S273.807,86.78,269.017,86.78"/>
		<path style="fill:#E57E25;" d="M303.729,138.847h-75.073c3.662,6.326,8.062,12.167,13.147,17.356h61.926
			c4.79,0,8.678-3.888,8.678-8.678S308.519,138.847,303.729,138.847"/>
	</g>
	<g>
		<path style="fill:#85ADAF;" d="M511.219,321.085h-33.931c-4.799,0-8.678,3.888-8.678,8.678s3.879,8.678,8.678,8.678h27.691
			C508.034,333.164,510.169,327.316,511.219,321.085"/>
		<path style="fill:#85ADAF;" d="M442.576,286.373h-27.691c-3.055,5.276-5.189,11.125-6.239,17.356h33.931
			c4.799,0,8.678-3.888,8.678-8.678S447.375,286.373,442.576,286.373"/>
	</g>
</g>
<g>
</g>
<g>
</g>
<g>
</g>
<g>
</g>
<g>
</g>
<g>
</g>
<g>
</g>
<g>
</g>
<g>
</g>
<g>
</g>
<g>
</g>
<g>
</g>
<g>
</g>
<g>
</g>
<g>
</g>
</svg>
