<?xml version="1.0" encoding="utf-8"?>
<!DOCTYPE svg PUBLIC "-//W3C//DTD SVG 20010904//EN" "http://www.w3.org/TR/2001/REC-SVG-20010904/DTD/svg10.dtd">
<svg version="1.0" xmlns="http://www.w3.org/2000/svg" width="600px" height="600px" viewBox="0 0 600 600" preserveAspectRatio="xMidYMid meet">
    <g fill="#5656ff">
        <path d="M92 598.4 c-54 -3.1 -82.6 -27.4 -90.1 -76.9 -2.1 -13.4 -2.1 -431.6 0 -445 6.7 -43.9 30.1 -68.1 72.5 -75 13.7 -2.2 437.5 -2.2 451.2 0 42.4 6.9 65.8 31.1 72.5 75 2.1 13.4 2.1 431.6 0 445 -6.7 43.9 -29.1 67.1 -72.5 75.2 -8.3 1.6 -26.6 1.7 -218.6 1.8 -115.2 0.1 -212 0 -215 -0.1z m363.5 -54.8 c26.2 -6.2 46.4 -17.3 63.1 -34.7 3.9 -4.1 8.9 -10.1 11.1 -13.4 4.4 -6.6 12.3 -21.5 12.3 -23.4 0 -0.8 -6.8 -1.1 -25.7 -0.9 l-25.7 0.3 -4.7 7 c-13.5 19.9 -33.2 29.5 -60.3 29.5 -33.4 0 -57.2 -12.5 -71.5 -37.4 -5.1 -8.9 -6.6 -13 -9.2 -24.6 -2.4 -10.8 -2.6 -36.7 -0.4 -48.1 5.4 -28.4 23 -49.7 48.7 -58.7 17.8 -6.3 43.3 -6.5 60.3 -0.5 14.5 5.1 24.1 12.5 32.7 25.3 l4.4 6.5 25.7 0.3 c17.3 0.1 25.7 -0.1 25.7 -0.8 0 -2.6 -9.4 -19.5 -15 -26.8 -22.4 -29.8 -60.7 -48.2 -100.4 -48.4 -64.2 -0.2 -115.7 40 -129.3 100.9 -2.5 11.3 -2.5 40.7 0.1 51.8 5.7 24.4 16.4 43.8 33.5 61.4 17.9 18.3 44.9 32.1 70.6 36.1 3.8 0.6 7.2 1.4 7.5 1.7 0.3 0.3 8.4 0.3 18 0 14.1 -0.4 19.6 -1 28.5 -3.1z m-252.5 -104.6 l0 -106 34.8 -0.2 34.7 -0.3 0.3 -17.2 0.2 -17.3 -93.5 0 -93.5 0 0.2 17.3 0.3 17.2 34.8 0.3 34.7 0.2 0 106 0 106 23.5 0 23.5 0 0 -106z" />
    </g>
    <g fill="#ffaa56">
        <path d="M406 549.7 c-0.3 -0.3 -3.7 -1.1 -7.5 -1.7 -45.4 -7 -85 -39.8 -99.8 -82.5 -9.4 -27.2 -9.3 -61.3 0.2 -88.8 15.3 -44.3 54.3 -76 102.1 -83.2 29.4 -4.5 59.3 -0.7 83.6 10.5 17.7 8.1 34.2 21.4 45.5 36.3 6.1 8 16.9 28.5 16.9 32 0 1.6 -1.9 1.7 -29.7 1.5 l-29.7 -0.3 -4.4 -6.5 c-6.1 -9 -11.5 -14.4 -19.2 -18.9 -14.5 -8.7 -30.3 -12 -48.3 -10.1 -30.9 3.3 -53.7 20.5 -64.2 48.4 -7.4 19.6 -7.4 48.5 -0.2 69.3 2.4 7.1 9.8 19.1 15.7 25.6 25.8 28.4 78.1 31.8 105.2 6.7 3.3 -3 8.1 -8.6 10.7 -12.5 l4.7 -7 28.9 -0.3 c17.5 -0.1 29.2 0.1 29.8 0.7 1.2 1.2 0 4.4 -5.6 15.6 -5.5 11.1 -10.9 18.8 -19.1 27.4 -16.6 17.3 -36.8 28.5 -63.1 34.7 -9.4 2.2 -14 2.7 -31.5 3.1 -11.3 0.3 -20.7 0.3 -21 0z" />
    </g>
    <g fill="#ffff00">
        <path d="M153 442 l0 -106 -34.7 -0.2 -34.8 -0.3 -0.3 -20.2 -0.2 -20.3 96.5 0 96.5 0 -0.2 20.3 -0.3 20.2 -34.7 0.3 -34.8 0.2 0 106 0 106 -26.5 0 -26.5 0 0 -106z" />
    </g>
</svg>