<?xml version="1.0" standalone="no"?>
<!DOCTYPE svg PUBLIC "-//W3C//DTD SVG 20010904//EN"
 "http://www.w3.org/TR/2001/REC-SVG-20010904/DTD/svg10.dtd">
<svg version="1.0" xmlns="http://www.w3.org/2000/svg"
 width="597.000000pt" height="597.000000pt" viewBox="0 0 597.000000 597.000000"
 preserveAspectRatio="xMidYMid meet">
<metadata>
Created by potrace 1.14, written by Peter Selinger 2001-2017
</metadata>
<g transform="translate(0.000000,597.000000) scale(0.100000,-0.100000)"
fill="#000000" stroke="none">
<path d="M4246 3053 c-2 -2 -35 -6 -72 -8 -106 -5 -161 -14 -264 -42 -280 -76
-546 -264 -713 -504 -86 -124 -178 -340 -191 -448 -2 -22 -6 -44 -9 -48 -18
-30 -26 -260 -14 -393 7 -78 8 -82 26 -165 104 -466 498 -847 981 -946 25 -5
56 -12 70 -15 14 -4 113 -8 220 -10 145 -3 214 0 270 12 41 8 87 16 102 17 16
1 28 4 28 7 0 3 10 7 22 7 20 2 66 16 133 42 306 118 543 343 665 631 17 39
29 78 27 84 -4 10 -75 12 -298 12 l-293 -1 -40 -60 c-49 -74 -108 -139 -161
-175 -67 -46 -151 -87 -202 -99 -26 -6 -59 -14 -73 -18 -14 -4 -79 -7 -145 -8
-137 -3 -260 22 -371 74 -172 80 -309 241 -375 437 -16 46 -31 99 -33 117 -3
18 -8 43 -11 57 -7 32 -8 287 0 299 3 5 8 29 10 54 8 65 59 200 104 276 97
164 287 301 466 336 340 67 654 -46 793 -285 14 -25 30 -48 35 -51 5 -4 142
-7 304 -7 l295 0 -6 28 c-9 49 -95 211 -154 293 -127 176 -301 307 -557 418
-42 18 -263 69 -325 75 -88 8 -238 12 -244 7z"/>
<path d="M892 2818 l3 -203 336 -1 c185 0 343 -3 350 -6 12 -5 14 -176 13
-1062 0 -954 1 -1056 15 -1057 22 -1 449 -1 483 0 l26 1 0 1056 c0 580 3 1058
6 1061 3 4 160 7 349 7 l342 1 1 203 0 202 -963 0 -964 0 3 -202z"/>
</g>
</svg>
